<mxfile host="app.diagrams.net" modified="2023-11-22T16:26:15.189Z" agent="Mozilla/5.0 (Macintosh; Intel Mac OS X 10_15_7) AppleWebKit/537.36 (KHTML, like Gecko) Chrome/119.0.0.0 Safari/537.36" etag="-EAcrYID0gE4AFi5vMQ2" version="22.1.3" type="github">
  <diagram name="Page-1" id="xJvcXuqUQ8Qbdydhz7cT">
    <mxGraphModel dx="1221" dy="837" grid="1" gridSize="10" guides="1" tooltips="1" connect="1" arrows="1" fold="1" page="1" pageScale="1" pageWidth="827" pageHeight="1169" math="0" shadow="0">
      <root>
        <mxCell id="0" />
        <mxCell id="1" parent="0" />
        <mxCell id="weApvxQsDmEx9xJzjFPK-4" style="edgeStyle=orthogonalEdgeStyle;rounded=0;orthogonalLoop=1;jettySize=auto;html=1;" edge="1" parent="1" source="weApvxQsDmEx9xJzjFPK-1">
          <mxGeometry relative="1" as="geometry">
            <mxPoint x="330" y="480" as="targetPoint" />
          </mxGeometry>
        </mxCell>
        <mxCell id="weApvxQsDmEx9xJzjFPK-1" value="Bot 1" style="whiteSpace=wrap;html=1;aspect=fixed;" vertex="1" parent="1">
          <mxGeometry x="50" y="440" width="80" height="80" as="geometry" />
        </mxCell>
        <mxCell id="weApvxQsDmEx9xJzjFPK-5" value="Run start &lt;br&gt;transaction start,&lt;br&gt;transaction end - success, &lt;br&gt;transaction end - failed,&lt;br&gt;Run finish&amp;nbsp;" style="text;html=1;align=left;verticalAlign=middle;resizable=0;points=[];autosize=1;strokeColor=none;fillColor=none;" vertex="1" parent="1">
          <mxGeometry x="155" y="480" width="160" height="90" as="geometry" />
        </mxCell>
        <mxCell id="weApvxQsDmEx9xJzjFPK-6" value="Bot Transaction service" style="rounded=1;whiteSpace=wrap;html=1;" vertex="1" parent="1">
          <mxGeometry x="330" y="450" width="120" height="60" as="geometry" />
        </mxCell>
        <mxCell id="weApvxQsDmEx9xJzjFPK-7" value="FR&lt;br&gt;1. Track transactions for a bot per run&lt;br&gt;2. Derive BI&lt;br&gt;&lt;span style=&quot;white-space: pre;&quot;&gt;&#x9;&lt;/span&gt;- cost saving trend for a bot per quarter&lt;br&gt;&lt;span style=&quot;white-space: pre;&quot;&gt;&#x9;&lt;/span&gt;- how many bots are running in dev, stage, prod, retired&lt;br&gt;&lt;span style=&quot;white-space: pre;&quot;&gt;&#x9;&lt;/span&gt;- avg. time from bot inception to bot in prod&lt;br&gt;&lt;br&gt;NFR&lt;br&gt;1. Scalable for 1M bots&amp;nbsp;&lt;br&gt;2. Low latency&lt;br&gt;3. Available&lt;br&gt;4. Data Durability&amp;nbsp;&lt;br&gt;5. Consistency over availability&lt;br&gt;6. Write heavy system w/ BI queries" style="text;html=1;align=left;verticalAlign=middle;resizable=0;points=[];autosize=1;strokeColor=none;fillColor=none;" vertex="1" parent="1">
          <mxGeometry x="20" width="340" height="220" as="geometry" />
        </mxCell>
        <mxCell id="weApvxQsDmEx9xJzjFPK-10" value="DB" style="shape=cylinder3;whiteSpace=wrap;html=1;boundedLbl=1;backgroundOutline=1;size=15;" vertex="1" parent="1">
          <mxGeometry x="940" y="567.5" width="60" height="80" as="geometry" />
        </mxCell>
        <mxCell id="weApvxQsDmEx9xJzjFPK-12" value="&lt;font style=&quot;font-size: 14px;&quot;&gt;Back of envelope estimations&lt;br&gt;- Transaction(T)/s = &lt;br&gt;&lt;span style=&quot;white-space: pre;&quot;&gt;&#x9;&lt;/span&gt;1M bots * 100threads/bot * 5 transaction/s = 500 M/s&lt;br&gt;&lt;br&gt;- data stored/T = &lt;br&gt;&lt;span style=&quot;white-space: pre;&quot;&gt;&#x9;&lt;/span&gt;5 attrs * 3 tables * 100 Bytes = 1500 Bytes = 1.5 KB/T&lt;/font&gt;" style="text;html=1;strokeColor=none;fillColor=none;align=left;verticalAlign=middle;whiteSpace=wrap;rounded=0;" vertex="1" parent="1">
          <mxGeometry x="390" y="20" width="430" height="130" as="geometry" />
        </mxCell>
        <mxCell id="weApvxQsDmEx9xJzjFPK-14" style="edgeStyle=orthogonalEdgeStyle;rounded=0;orthogonalLoop=1;jettySize=auto;html=1;entryX=0.4;entryY=-0.3;entryDx=0;entryDy=0;entryPerimeter=0;" edge="1" parent="1" source="weApvxQsDmEx9xJzjFPK-13" target="weApvxQsDmEx9xJzjFPK-15">
          <mxGeometry relative="1" as="geometry">
            <mxPoint x="510" y="580" as="targetPoint" />
          </mxGeometry>
        </mxCell>
        <mxCell id="weApvxQsDmEx9xJzjFPK-13" value="Bot Transaction service" style="rounded=1;whiteSpace=wrap;html=1;" vertex="1" parent="1">
          <mxGeometry x="340" y="460" width="120" height="60" as="geometry" />
        </mxCell>
        <mxCell id="weApvxQsDmEx9xJzjFPK-16" style="edgeStyle=orthogonalEdgeStyle;rounded=0;orthogonalLoop=1;jettySize=auto;html=1;entryX=0;entryY=0.5;entryDx=0;entryDy=0;" edge="1" parent="1" source="weApvxQsDmEx9xJzjFPK-15" target="weApvxQsDmEx9xJzjFPK-17">
          <mxGeometry relative="1" as="geometry">
            <mxPoint x="680" y="607.5" as="targetPoint" />
          </mxGeometry>
        </mxCell>
        <mxCell id="weApvxQsDmEx9xJzjFPK-15" value="MQ" style="shape=process;whiteSpace=wrap;html=1;backgroundOutline=1;" vertex="1" parent="1">
          <mxGeometry x="470" y="600" width="100" height="15" as="geometry" />
        </mxCell>
        <mxCell id="weApvxQsDmEx9xJzjFPK-17" value="Bot Transaction Processing service" style="rounded=1;whiteSpace=wrap;html=1;" vertex="1" parent="1">
          <mxGeometry x="670" y="577.5" width="120" height="60" as="geometry" />
        </mxCell>
        <mxCell id="weApvxQsDmEx9xJzjFPK-18" style="edgeStyle=orthogonalEdgeStyle;rounded=0;orthogonalLoop=1;jettySize=auto;html=1;entryX=0;entryY=0.5;entryDx=0;entryDy=0;entryPerimeter=0;" edge="1" parent="1" source="weApvxQsDmEx9xJzjFPK-17" target="weApvxQsDmEx9xJzjFPK-10">
          <mxGeometry relative="1" as="geometry" />
        </mxCell>
      </root>
    </mxGraphModel>
  </diagram>
</mxfile>
